<svg xmlns="http://www.w3.org/2000/svg" width="1280" height="760" viewBox="0 0 1280 760" role="img" aria-labelledby="title desc">
  <title id="title">Tela de login</title>
  <desc id="desc">Preview do login alinhado a identidade visual da landing.</desc>
  <defs><linearGradient id="bg" x1="0" y1="0" x2="1" y2="1"><stop stop-color="#f7efe3"/><stop offset="1" stop-color="#efe1ce"/></linearGradient></defs>
  <rect width="1280" height="760" fill="url(#bg)"/>
  <circle cx="180" cy="90" r="260" fill="#dca94b" opacity="0.28"/>
  <circle cx="1100" cy="120" r="230" fill="#b95f38" opacity="0.16"/>
  <text x="92" y="102" font-family="Arial" font-size="24" font-weight="700" fill="#17130f">RedBean Twig Slim</text>
  <text x="92" y="210" font-family="Arial" font-size="15" font-weight="700" letter-spacing="2" fill="#b95f38">AREA RESTRITA</text>
  <text x="92" y="310" font-family="Georgia, serif" font-size="72" font-weight="700" fill="#17130f">Admin pronto</text>
  <text x="92" y="386" font-family="Georgia, serif" font-size="72" font-weight="700" fill="#17130f">para validar MVPs.</text>
  <text x="96" y="442" font-family="Arial" font-size="23" fill="#695f55">Login, dashboard, ACL por rota, CRUDs e perfil.</text>
  <rect x="96" y="488" width="92" height="38" rx="19" fill="#344d3f" opacity="0.12"/><text x="119" y="513" font-family="Arial" font-size="16" font-weight="700" fill="#344d3f">Slim 3</text>
  <rect x="202" y="488" width="88" height="38" rx="19" fill="#344d3f" opacity="0.12"/><text x="226" y="513" font-family="Arial" font-size="16" font-weight="700" fill="#344d3f">Twig</text>
  <rect x="304" y="488" width="132" height="38" rx="19" fill="#344d3f" opacity="0.12"/><text x="326" y="513" font-family="Arial" font-size="16" font-weight="700" fill="#344d3f">RedBeanPHP</text>
  <rect x="756" y="145" width="382" height="475" rx="34" fill="#fffaf1" opacity="0.84" stroke="#d7c7b3"/>
  <text x="800" y="210" font-family="Arial" font-size="14" font-weight="700" letter-spacing="2" fill="#b95f38">ACESSO ADMINISTRATIVO</text>
  <text x="800" y="278" font-family="Georgia, serif" font-size="54" font-weight="700" fill="#17130f">Entrar no painel</text>
  <rect x="800" y="330" width="294" height="54" rx="16" fill="#f7efe3" stroke="#d7c7b3"/>
  <text x="824" y="364" font-family="Arial" font-size="18" fill="#695f55">admin@admin</text>
  <rect x="800" y="404" width="294" height="54" rx="16" fill="#f7efe3" stroke="#d7c7b3"/>
  <text x="824" y="438" font-family="Arial" font-size="18" fill="#695f55">••••••••</text>
  <rect x="800" y="484" width="294" height="54" rx="27" fill="#17130f"/>
  <text x="923" y="518" font-family="Arial" font-size="18" font-weight="700" fill="#fffaf1">Entrar</text>
</svg>
